# Blender 3.4.1
# www.blender.org
mtllib hand.mtl
o group1380155712
v 0.061534 0.008947 0.046961
v 0.116417 -0.045871 0.050089
v 0.123391 -0.042819 -0.003085
v 0.268969 0.014708 0.059320
v 0.278839 0.064033 0.055613
v 0.280400 0.067100 0.010523
v 0.198667 0.070376 0.058538
v 0.187031 -0.038938 0.055600
v 0.121706 0.133717 0.037913
v 0.122020 0.073997 0.050672
v 0.128145 0.074001 -0.009014
v 0.157321 -0.047510 -0.006028
v 0.105787 0.030104 -0.002780
v 0.161767 0.072119 0.054751
v 0.209955 0.130088 0.044009
v 0.242173 0.129413 0.047374
v 0.241261 0.068364 0.062910
v 0.201514 0.070241 0.058830
v 0.167503 0.150338 0.036868
v 0.199750 0.148810 0.039613
v 0.251814 0.111107 0.052448
v 0.278696 0.106137 0.050393
v 0.101861 0.031816 0.046833
v 0.153916 0.137016 0.039106
v 0.167625 0.071038 -0.009676
v 0.154844 0.136668 -0.008752
v 0.122555 0.134221 -0.009855
v 0.121647 0.202920 0.005315
v 0.120138 0.202388 0.040708
v 0.207337 0.069183 -0.004828
v 0.203415 0.153932 -0.004677
v 0.171296 0.156085 -0.008351
v 0.176658 0.221631 0.045918
v 0.202736 0.220400 0.048595
v 0.246253 0.130580 -0.000397
v 0.247629 0.066943 -0.000796
v 0.214359 0.132993 -0.005569
v 0.215471 0.199776 0.049901
v 0.241549 0.198544 0.052577
v 0.288844 0.110617 0.008275
v 0.258120 0.118742 0.001964
v 0.259926 0.163061 0.052846
v 0.285691 0.158492 0.054848
v 0.143657 0.204309 0.041740
v 0.145166 0.204840 0.006346
v 0.125335 0.213170 0.012888
v 0.124444 0.212856 0.033787
v 0.206755 0.220402 0.009435
v 0.180677 0.221634 0.006758
v 0.182300 0.231409 0.039694
v 0.199410 0.230601 0.041450
v 0.245569 0.198547 0.013417
v 0.219490 0.199779 0.010740
v 0.222101 0.209513 0.042479
v 0.237500 0.208786 0.044059
v 0.290233 0.158534 0.023136
v 0.264587 0.163618 0.020862
v 0.074124 0.056538 0.048280
v 0.064761 0.058653 0.007606
v 0.022923 0.048858 0.052404
v 0.047118 0.018862 0.016766
v 0.046464 0.035952 0.069615
v 0.065095 0.065492 0.066368
v 0.041020 0.077786 0.044973
v 0.025916 0.056401 0.060171
v 0.040518 0.048557 0.072590
v 0.138332 0.213990 0.034396
v 0.139222 0.214304 0.013497
v 0.202047 0.230603 0.015757
v 0.184937 0.231411 0.014001
v 0.239873 0.208787 0.020936
v 0.224474 0.209515 0.019355
v 0.275447 0.170781 0.044838
v 0.287004 0.168748 0.030308
v 0.270178 0.172084 0.028816
v 0.051519 0.066000 0.070674
v 0.036918 0.073844 0.058254
v 0.193373 -0.048519 -0.005874
v 0.226879 -0.050796 0.001110
v 0.249427 -0.049624 0.019353
v 0.249256 -0.049319 0.049579
v 0.247233 0.017811 0.063519
v 0.219774 0.007751 0.064697
vn -0.6967 -0.7051 -0.1319
vn 0.9806 -0.1947 0.0207
vn -0.0760 -0.0187 0.9969
vn -0.9944 -0.0270 -0.1021
vn -0.1545 -0.0613 -0.9861
vn -0.1021 -0.0001 0.9948
vn -0.0909 0.2491 0.9642
vn -0.0809 0.2315 0.9695
vn 0.1130 0.2098 0.9712
vn -0.8952 0.4362 -0.0918
vn -0.0902 0.2076 0.9740
vn 0.9862 0.1404 0.0873
vn 0.0349 -0.0107 -0.9993
vn -0.9995 -0.0143 -0.0285
vn 0.9949 0.0444 0.0903
vn 0.1144 0.0105 -0.9934
vn -0.9945 0.0521 -0.0913
vn -0.0974 -0.1165 0.9884
vn 0.9955 0.0150 0.0933
vn 0.1608 0.0097 -0.9869
vn -0.9898 0.1128 -0.0876
vn -0.1052 -0.0755 0.9916
vn 0.9612 -0.1755 0.2129
vn 0.1788 -0.0853 -0.9802
vn -0.9739 0.2027 -0.1019
vn -0.0767 0.0043 0.9970
vn -0.0358 -0.0430 0.9984
vn 0.9895 0.1418 0.0293
vn 0.0203 0.2174 -0.9759
vn -0.9321 0.3607 -0.0343
vn 0.9933 -0.0542 0.1019
vn 0.1179 0.2038 -0.9719
vn -0.9851 0.1393 -0.1011
vn -0.0584 0.5599 0.8265
vn 0.9957 -0.0034 0.0927
vn 0.1094 0.1990 -0.9739
vn -0.9897 0.1008 -0.1016
vn -0.0502 0.6268 0.7776
vn 0.9873 -0.0725 0.1413
vn 0.1413 0.2895 -0.9467
vn -0.9705 0.1979 -0.1380
vn 0.1066 0.0616 0.9924
vn 0.5740 0.8186 0.0172
vn -0.2874 -0.0654 -0.9556
vn -0.7071 -0.6988 0.1081
vn -0.6220 -0.7820 0.0402
vn -0.3112 -0.0800 -0.9470
vn -0.0668 -0.0100 0.9977
vn 0.6578 0.7447 -0.1127
vn 0.5963 -0.2940 0.7470
vn 0.5447 0.8273 -0.1376
vn -0.6868 0.2548 -0.6807
vn -0.6881 -0.4173 0.5935
vn -0.0825 0.5730 0.8154
vn 0.8608 0.5071 0.0443
vn -0.0136 0.5973 -0.8019
vn -0.0819 0.9966 0.0115
vn 0.9249 0.3681 0.0950
vn 0.1107 0.5600 -0.8211
vn -0.8865 0.4537 -0.0910
vn 0.0467 0.9989 0.0049
vn 0.8974 0.4315 0.0921
vn 0.1088 0.6269 -0.7715
vn -0.8532 0.5142 -0.0875
vn 0.5644 0.7505 0.3439
vn 0.1883 0.6035 -0.7748
vn -0.9006 0.2940 0.3201
vn 0.2984 -0.0837 0.9508
vn 0.1714 0.9202 0.3520
vn -0.8463 0.5220 -0.1065
vn -0.4700 0.3838 0.7949
vn 0.2005 -0.0512 -0.9784
vn 0.0034 -0.0310 -0.9995
vn 0.6203 -0.2215 -0.7524
vn 0.0983 -0.0224 -0.9949
vn 0.1209 -0.0055 -0.9926
vn 0.1215 0.0074 -0.9926
vn 0.0994 -0.0029 -0.9950
vn 0.3265 -0.0158 -0.9451
vn 0.3259 -0.0727 -0.9426
vn -0.0189 -0.0291 -0.9994
vn -0.0159 0.0110 -0.9998
vn -0.0267 -0.9811 -0.1919
vn 0.9667 -0.2559 0.0080
vn 0.0436 -0.9990 0.0103
vn -0.1430 -0.9868 -0.0754
vn -0.0888 -0.0173 -0.9959
vn -0.8927 0.4425 -0.0859
vn -0.9928 0.0856 -0.0832
vn -0.2717 0.0031 0.9624
vn -0.0467 -0.9989 -0.0049
vn -0.1542 -0.9829 0.1011
vn 0.0739 -0.9619 0.2633
vn 0.2027 0.1212 0.9717
vn 0.1589 -0.1961 0.9676
vn 0.9994 0.0077 0.0351
vn 0.0589 -0.0925 0.9940
vn 0.9650 -0.1474 0.2168
vn -0.9719 0.2183 -0.0884
vn -0.9830 0.1542 -0.0995
vn 0.5441 0.8350 -0.0818
vn 0.8198 -0.2314 0.5238
vn -0.7748 0.2060 -0.5977
vn -0.6408 -0.6708 0.3734
vn -0.1959 0.0044 0.9806
vn -0.9955 -0.0927 -0.0187
vn 0.9815 0.1909 0.0177
vn -0.0593 0.2272 0.9721
vn 0.9681 0.2085 0.1389
vn 0.1930 0.9811 0.0163
vn -0.8550 0.4958 -0.1520
vn 0.9951 0.0459 0.0876
vn 0.9950 -0.0659 0.0747
vn -0.9960 0.0442 -0.0779
vn -0.9858 0.1556 -0.0629
vn 0.1724 0.2212 -0.9599
vn 0.2745 0.3393 -0.8997
vn 0.0587 0.6594 0.7495
vn -0.4663 0.8831 -0.0526
vn 0.1944 0.0348 0.9803
vn 0.9561 -0.2823 -0.0791
vn 0.0061 0.0999 0.9950
vn 0.1145 -0.1987 0.9733
vn 0.0559 -0.2286 0.9719
vt -0.077478 -0.056331
vt -0.029287 -0.098120
vt -0.025766 -0.080201
vt 0.132438 0.097104
vt 0.137174 0.089326
vt 0.131870 0.098617
vt 0.080739 -0.081590
vt -0.071025 -0.052016
vt 0.125253 0.099497
vt 0.123676 0.101172
vt 0.125789 0.094776
vt 0.125059 0.099516
vt 0.008578 0.005048
vt 0.024179 0.016119
vt 0.065682 0.028983
vt 0.120643 0.105082
vt -0.073957 -0.047515
vt -0.128728 0.090396
vt -0.025435 -0.070715
vt -0.128646 0.089443
vt 0.003959 0.007789
vt -0.127107 0.096136
vt 0.097132 0.138764
vt 0.134001 0.104345
vt 0.127496 0.107414
vt 0.077636 0.151150
vt 0.099224 0.143353
vt 0.127744 0.109514
vt 0.117180 0.120248
vt 0.131493 0.110491
vt 0.095428 0.145811
vt 0.116532 0.128935
vt -0.118598 0.126947
vt -0.068468 0.159805
vt -0.117036 0.129862
vt -0.112651 0.133316
vt 0.089416 0.150195
vt 0.113842 0.123298
vt 0.074972 0.157893
vt 0.131884 0.112126
vt 0.115616 0.117696
vt 0.130158 0.113880
vt 0.123958 0.121223
vt 0.127729 0.111971
vt 0.122668 0.106127
vt 0.115104 0.114701
vt 0.036959 0.001965
vt 0.067799 0.035777
vt 0.131895 0.093910
vt -0.130070 0.115526
vt 0.126617 0.114826
vt -0.120460 0.126452
vt 0.143082 0.105552
vt -0.127789 0.114339
vt 0.126501 0.112980
vt -0.126832 0.110348
vt 0.134043 0.107216
vt -0.090326 0.140022
vt 0.121316 0.111795
vt 0.130868 0.111364
vt -0.122515 0.114515
vt -0.136945 0.100249
vt -0.085018 0.142820
vt -0.135143 0.105421
vt -0.135531 0.104227
vt -0.137081 0.103115
vt -0.083878 0.143117
vt -0.120263 0.113135
vt -0.124765 0.097439
vt -0.122808 0.102095
vt -0.123370 0.101334
vt -0.003711 0.035424
vt 0.005069 0.011043
vt -0.125185 0.098986
vt 0.020330 0.021902
vt -0.134010 0.096244
vt 0.031993 -0.062847
vt -0.136058 0.091994
vt -0.134428 0.097773
vt -0.082373 0.138385
vt 0.132028 0.110671
vt 0.117702 0.114624
vt 0.119084 0.115115
vt 0.134953 0.089833
vt -0.118911 0.122331
vt 0.118968 0.113266
vt 0.118504 0.122410
vt -0.116017 0.135182
vt 0.138818 0.113722
vt -0.117792 0.132778
vt 0.116736 0.125124
vt 0.127532 0.118082
vt 0.137345 0.116607
vt 0.125909 0.121032
vt 0.111351 0.121852
vt 0.122232 0.109701
vt 0.124530 0.112543
vt -0.108830 0.135930
vt 0.127999 0.117583
vt 0.129816 0.106267
vt -0.106260 0.138134
vt 0.133543 0.107229
vt 0.113618 0.118556
vt 0.115455 0.117933
vt 0.126852 0.108252
vt -0.113706 0.129405
vt 0.130013 0.114127
vt 0.124345 0.119160
vt -0.122433 0.129563
vt 0.144418 0.107935
vt -0.115989 0.137674
vt -0.121628 0.130051
vt -0.109916 0.142833
vt 0.122535 0.121847
vt 0.130989 0.115204
vt 0.142918 0.110807
vt 0.123378 0.128743
vt 0.130879 0.115236
vt 0.119331 0.133051
vt 0.125569 0.112758
vt 0.131849 0.119619
vt 0.139267 0.111860
vt -0.107660 0.142437
vt -0.113652 0.136591
vt 0.123873 0.114912
vt 0.122099 0.129350
vt 0.131515 0.111460
vt 0.119395 0.123866
vt 0.137684 0.114098
vt 0.124198 0.126478
vt -0.087985 0.135958
vt 0.133385 0.096983
vt 0.028176 -0.066045
vt 0.013755 -0.091929
vt -0.086882 0.136271
vt 0.128166 0.107529
vt 0.139108 0.095116
vt 0.141962 0.108592
vt 0.134428 0.101983
vt 0.138662 0.090633
vt 0.125142 0.115922
vt 0.130796 0.094791
vt -0.132163 0.110461
vt -0.113825 0.126330
vt -0.132898 0.108413
vt -0.131193 0.111453
vt -0.131825 0.110850
vt -0.133483 0.107616
vt -0.135068 0.106525
vt 0.130351 0.090247
vt -0.113045 0.126753
vt -0.139510 0.110649
vt 0.131171 0.105491
vt -0.146879 0.097798
vt -0.141520 0.108282
vt 0.135637 0.094344
vt -0.140762 0.107660
vt -0.116749 0.129462
vt -0.147872 0.094714
vt -0.124318 0.117623
vt -0.122210 0.133899
vt -0.154407 0.097323
vt -0.089039 0.157598
vt -0.144845 0.060202
vt -0.124952 0.131656
vt 0.149320 0.108441
vt -0.092209 0.156017
vt 0.096501 0.107504
vt 0.122205 0.112642
vt -0.108489 0.133101
vt -0.128907 0.114847
vt -0.129158 0.114902
vt -0.129806 0.114309
vt -0.129871 0.114061
vt 0.122098 0.112662
vt -0.137853 0.117489
vt -0.145471 0.104235
vt -0.137496 0.117894
vt 0.128054 0.118704
vt 0.116115 0.136160
vt -0.139535 0.114720
vt -0.146905 0.101330
vt -0.118445 0.133335
vt -0.106430 0.145795
vt 0.150512 0.111853
vt -0.120877 0.143022
vt 0.097931 0.111553
vt -0.095376 0.154080
vt 0.149302 0.114182
vt 0.128620 0.133709
vt 0.096346 0.113645
vt 0.153882 0.023730
vt 0.124092 0.121423
vt -0.132408 0.121838
vt 0.122406 0.124308
vt -0.141662 0.107691
vt -0.141551 0.105907
vt 0.119732 0.116785
vt -0.126730 0.118961
vt -0.103435 0.139379
vt -0.121754 0.123501
vt -0.126810 0.118318
vt -0.127797 0.117546
vt -0.118841 0.126902
vt -0.114548 0.130414
vt -0.134139 0.119099
vt -0.112174 0.138358
vt -0.114784 0.135824
vt -0.134219 0.118452
vt -0.113998 0.136013
vt -0.142987 0.103003
vt 0.144841 0.117320
vt -0.123242 0.137784
vt 0.085980 0.107938
vt -0.090877 0.152523
vt -0.122443 0.138030
vt 0.143586 0.119625
vt 0.130898 0.125845
vt 0.084390 0.110026
vt 0.144413 -0.001782
vt 0.119128 0.132535
vt -0.121956 0.129850
vt 0.120379 0.127515
vt -0.140295 0.102599
vt 0.121292 0.129721
vt -0.140422 0.094250
vt -0.124253 0.127565
vt -0.106522 0.143678
vt -0.110779 0.140335
vt -0.122685 0.130540
vt -0.103797 0.145834
vt -0.109954 0.140167
vt -0.142146 0.091506
vt 0.136090 0.122728
vt -0.117494 0.141027
vt -0.116663 0.140903
vt 0.083621 0.095323
vt -0.061499 0.109208
vt 0.134496 0.124813
vt 0.127043 0.128067
vt 0.079340 -0.007068
vt 0.142177 0.116912
vt 0.127960 0.130212
vt 0.145732 0.073001
vt 0.081865 0.097273
vt 0.148459 0.110640
vt 0.139641 0.106368
vt 0.095345 0.109564
vt 0.134728 -0.037336
vt 0.137280 0.109009
vt -0.153700 0.099577
vt 0.135356 -0.033849
vt -0.144627 0.062554
vt -0.090184 0.158268
vt -0.146031 0.060798
vt -0.026750 0.039964
vt -0.092056 0.157334
vt 0.097342 0.108530
vt -0.028693 0.039190
vt 0.125590 0.136223
vt -0.151549 0.107291
vt 0.152945 0.027553
vt -0.148512 0.064042
vt 0.121263 0.140609
vt -0.152671 0.104919
vt -0.117694 0.145338
vt -0.149047 0.061473
vt -0.091883 0.155895
vt -0.111263 0.150567
vt 0.098621 0.112642
vt -0.095281 0.155366
vt -0.024905 0.021486
vt 0.097581 0.114014
vt 0.154786 0.024648
vt -0.025662 0.023032
vt 0.127959 0.128464
vt -0.148032 0.110436
vt 0.144091 0.002142
vt -0.141534 0.057549
vt -0.149155 0.108064
vt -0.120123 0.140185
vt -0.141914 0.054952
vt -0.087350 0.154273
vt -0.149044 0.106296
vt 0.086676 0.109144
vt -0.090659 0.153899
vt -0.026587 0.025213
vt 0.085738 0.110377
vt 0.145478 -0.000885
vt -0.027268 0.026604
vt 0.124633 0.130178
vt -0.144891 0.104615
vt -0.140221 0.057872
vt 0.144105 0.075760
vt -0.146253 0.102372
vt -0.114918 0.142980
vt -0.140992 0.055364
vt -0.029739 0.180668
vt -0.146380 0.093997
vt -0.058582 0.110602
vt 0.136839 0.095605
vt 0.136106 0.100390
vt 0.015466 -0.095230
vt -0.010549 -0.078802
vt 0.003099 -0.075019
vt 0.135424 0.102026
vt 0.034019 -0.067533
vt -0.140454 0.089398
vt -0.140372 0.088445
vt 0.019440 -0.093938
vt 0.007159 -0.074030
vt -0.137201 0.099172
vt -0.031995 -0.102998
vt -0.140778 0.090933
vt 0.145125 0.043442
vt 0.082212 -0.086972
vt -0.091537 0.127277
vt -0.032763 -0.097806
vt -0.029248 -0.079968
vt -0.137598 0.084968
vt -0.135900 0.092873
vt -0.134851 0.095395
vt 0.140916 0.088493
vt 0.143383 0.046113
vt 0.143555 0.085482
vt 0.083625 -0.084113
vt 0.142764 0.091474
vt -0.011792 -0.080631
vt 0.145449 0.088434
vt 0.037771 0.017781
vt 0.137372 0.100980
vt -0.008797 -0.082339
vt -0.142355 0.094049
vt 0.041083 0.016826
vt -0.085239 0.132831
vt 0.005129 -0.078404
vt -0.141296 0.096625
vt -0.092329 0.130678
vt 0.145839 0.044307
vt -0.085587 0.129824
vt 0.078793 0.132957
vt -0.092592 0.127663
vt 0.144807 0.046101
vt 0.144979 0.085421
vt 0.076813 0.133563
vt 0.096659 0.109746
vt 0.135950 -0.036819
vt -0.029209 0.040485
vt 0.136321 -0.034760
vt -0.145902 0.062186
vt -0.027266 0.041260
vt 0.154171 0.027157
vt -0.149786 0.063846
vt -0.023343 0.024169
vt -0.150137 0.062161
vt -0.092989 0.156557
vt -0.022585 0.022622
vt 0.145288 0.001431
vt -0.142883 0.057204
vt -0.025181 0.027627
vt -0.143107 0.055670
vt -0.088577 0.154932
vt -0.024499 0.026235
vt 0.081226 -0.007130
vt -0.032364 0.181412
vt -0.017661 0.005067
vt 0.083752 0.097228
vt -0.061264 0.111103
vt 0.081299 -0.005264
vt -0.141508 0.057796
vt 0.145388 0.075641
vt -0.016770 0.006708
vt -0.142014 0.056150
vt -0.030678 0.181552
vt -0.015974 0.005182
vt 0.146097 0.087164
vt 0.038098 0.016394
vt 0.077419 0.135544
vt 0.040078 0.015788
vt -0.086240 0.131790
vt 0.079399 0.134938
vt -0.114479 0.113009
vt -0.121076 0.105258
vt -0.119409 0.108159
vt -0.120087 0.107369
vt -0.002195 0.038696
vt -0.112563 0.115854
vt -0.064687 0.147386
vt -0.105743 0.122325
vt -0.000150 0.041451
vt 0.029636 0.041212
vt 0.023409 0.028188
vt 0.032989 0.007552
vt 0.063143 0.040807
vt -0.062485 0.149278
vt 0.084875 0.138970
vt 0.032097 0.042751
vt 0.087598 0.137658
vt 0.034949 0.041750
vt 0.038295 0.008159
vt 0.128721 0.100107
vt 0.074333 0.145241
vt 0.128417 0.100329
vt 0.128535 0.099283
vt 0.123239 0.115777
vt 0.135172 0.102440
vt 0.128735 0.105554
vt 0.120786 0.113778
vt 0.134858 0.102689
vt 0.117438 0.119983
vt 0.121182 0.110878
vt 0.134992 0.099766
vt 0.135109 0.098707
s 0
usemtl mat15
f 3/17/1 2/8/1 1/1/1
f 6/31/2 5/27/2 4/23/2
f 2/9/3 8/45/3 7/40/3
f 11/61/4 10/56/4 9/50/4
f 13/76/5 11/62/5 12/69/5
f 2/10/6 7/42/6 14/81/6 10/57/6
f 18/103/7 17/95/7 16/91/7 15/87/7
f 14/82/8 7/41/8 18/104/8 20/114/8 19/108/8
f 17/96/9 22/125/9 21/120/9
f 23/131/10 10/58/10 11/63/10
f 10/59/11 14/83/11 9/51/11
f 14/84/12 25/142/12 24/137/12
f 11/64/13 27/157/13 26/152/13
f 27/158/14 9/52/14 29/165/14 28/161/14
f 18/105/15 30/169/15 20/115/15
f 25/143/16 32/181/16 31/176/16
f 25/144/17 14/85/17 19/109/17
f 19/110/18 20/116/18 34/189/18 33/185/18
f 17/97/19 36/198/19 35/193/19 16/92/19
f 36/199/20 37/206/20 35/194/20
f 30/170/21 18/106/21 15/88/21 37/207/21
f 15/89/22 16/93/22 39/217/22 38/212/22
f 6/32/23 40/221/23 22/126/23
f 6/33/24 41/227/24 40/222/24
f 36/200/25 17/98/25 41/228/25
f 21/121/26 43/239/26 42/234/26
f 9/53/27 24/138/27 44/246/27 29/166/27
f 24/139/28 26/153/28 45/250/28 44/247/28
f 26/154/29 27/159/29 28/162/29 45/251/29
f 28/163/30 29/167/30 47/257/30 46/254/30
f 20/117/31 48/260/31 34/190/31
f 31/177/32 32/182/32 49/265/32 48/261/32
f 19/111/33 33/186/33 49/266/33
f 33/187/34 34/191/34 51/273/34 50/270/34
f 16/94/35 35/195/35 52/276/35 39/218/35
f 35/196/36 53/280/36 52/277/36
f 37/208/37 38/213/37 53/281/37
f 38/214/38 39/219/38 55/288/38 54/285/38
f 40/223/39 56/291/39 43/240/39
f 40/224/40 57/295/40 56/292/40
f 41/229/41 42/235/41 57/296/41
f 2/11/42 23/132/42 58/301/42
f 23/133/43 13/77/43 59/307/43
f 13/78/44 3/18/44 59/308/44
f 61/318/45 1/2/45 60/313/45
f 1/3/46 61/319/46 3/19/46
f 3/20/47 61/320/47 59/309/47
f 58/302/48 1/4/48 2/12/48
f 59/310/49 58/303/49 23/134/49
f 1/5/50 63/327/50 62/323/50
f 58/304/51 64/332/51 63/328/51
f 61/321/52 60/314/52 64/333/52
f 60/315/53 62/324/53 66/343/53 65/339/53
f 29/168/54 44/248/54 67/346/54 47/258/54
f 44/249/55 45/252/55 68/349/55 67/347/55
f 45/253/56 28/164/56 46/255/56 68/350/56
f 46/256/57 47/259/57 67/348/57 68/351/57
f 34/192/58 48/262/58 69/352/58 51/274/58
f 48/263/59 49/267/59 70/355/59 69/353/59
f 49/268/60 33/188/60 50/271/60 70/356/60
f 50/272/61 51/275/61 69/354/61 70/357/61
f 39/220/62 52/278/62 71/358/62 55/289/62
f 52/279/63 53/282/63 72/361/63 71/359/63
f 53/283/64 38/215/64 54/286/64 72/362/64
f 54/287/61 55/290/61 71/360/61 72/363/61
f 43/241/65 74/369/65 73/364/65
f 56/293/66 57/297/66 75/373/66 74/370/66
f 57/298/67 73/365/67 75/374/67
f 62/325/68 63/329/68 76/376/68 66/344/68
f 63/330/69 64/334/69 77/379/69 76/377/69
f 64/335/70 65/340/70 77/380/70
f 65/341/71 66/345/71 76/378/71 77/381/71
f 36/201/72 79/387/72 78/382/72
f 25/145/73 78/383/73 12/70/73
f 6/34/74 80/395/74 79/388/74
f 36/202/75 30/171/75 37/209/75
f 25/146/76 30/172/76 78/384/76
f 31/178/77 30/173/77 25/147/77
f 78/385/78 30/174/78 36/203/78
f 6/35/79 36/204/79 41/230/79
f 79/389/80 36/205/80 6/36/80
f 11/65/81 25/148/81 12/71/81
f 26/155/82 25/149/82 11/66/82
f 12/72/83 78/386/83 79/390/83
f 81/398/84 80/396/84 6/37/84
f 79/391/85 80/397/85 81/399/85
f 2/13/86 3/21/86 12/73/86
f 12/74/87 3/22/87 13/79/87
f 11/67/88 13/80/88 23/135/88
f 37/210/89 15/90/89 38/216/89
f 82/405/6 17/99/6 18/107/6 7/42/6
f 83/410/90 7/43/90 8/46/90
f 2/14/91 12/75/91 79/392/91
f 79/393/92 81/400/92 8/47/92
f 79/394/93 8/48/93 2/15/93
f 17/100/94 5/28/94 22/127/94
f 81/401/95 4/24/95 82/406/95
f 22/128/96 5/29/96 6/38/96
f 21/122/97 22/129/97 43/242/97
f 43/243/98 22/130/98 40/225/98
f 17/101/99 21/123/99 41/231/99
f 41/232/100 21/124/100 42/236/100
f 58/305/101 59/311/101 64/336/101
f 1/6/102 58/306/102 63/331/102
f 64/337/103 59/312/103 61/322/103
f 1/7/104 62/326/104 60/316/104
f 10/60/105 23/136/105 2/16/105
f 9/54/106 27/160/106 11/68/106
f 25/150/107 26/156/107 24/140/107
f 14/86/108 24/141/108 9/55/108
f 43/244/109 56/294/109 74/371/109
f 73/366/110 74/372/110 75/375/110
f 64/338/111 60/317/111 65/342/111
f 30/175/112 31/179/112 20/118/112
f 20/119/113 31/180/113 48/264/113
f 19/112/114 32/183/114 25/151/114
f 49/269/115 32/184/115 19/113/115
f 35/197/116 37/211/116 53/284/116
f 40/226/117 41/233/117 57/299/117
f 42/237/118 43/245/118 73/367/118
f 57/300/119 42/238/119 73/368/119
f 4/25/120 5/30/120 17/102/120 82/407/120
f 4/26/121 81/402/121 6/39/121
f 7/44/122 83/411/122 82/408/122
f 83/412/123 81/403/123 82/409/123
f 83/413/124 8/49/124 81/404/124
